<?xml version="1.0" encoding="utf-8"?>
<!-- Generator: Adobe Illustrator 21.0.1, SVG Export Plug-In . SVG Version: 6.00 Build 0)  -->
<!DOCTYPE svg PUBLIC "-//W3C//DTD SVG 1.1//EN" "http://www.w3.org/Graphics/SVG/1.1/DTD/svg11.dtd">
<svg version="1.1" id="Layer_1" xmlns="http://www.w3.org/2000/svg" xmlns:xlink="http://www.w3.org/1999/xlink" x="0px" y="0px"
	 viewBox="0 0 64 64" style="enable-background:new 0 0 64 64;" xml:space="preserve">
<style type="text/css">
	.st0{fill:#FF6B08;}
	.st1{fill:#FFFFFF;}
</style>
<circle class="st0" cx="32" cy="32" r="31"/>
<g>
	<g>
		<g>
			<circle class="st1" cx="19.7" cy="35.2" r="1.7"/>
			<circle class="st1" cx="25.4" cy="35.2" r="1.7"/>
		</g>
	</g>
	<g>
		<g>
			<path class="st1" d="M49.1,34.3c3.3-4.8,2.9-11.1-0.9-15.5c-4.6-5.3-12.6-5.8-17.9-1.2c-1.6,1.4-2.8,3.2-3.6,5.1
				c-4-0.5-8.2,1-11.1,4.3c-3.8,4.4-4.2,10.7-0.9,15.5l-0.8,4.5c0,0.3,0.1,0.6,0.3,0.9c0.2,0.1,0.4,0.2,0.6,0.2c0.1,0,0.2,0,0.3-0.1
				l4.3-1.4c5.2,2.7,11.6,1.5,15.5-2.9c1-1.2,1.8-2.5,2.3-3.9c2.5,0.3,5.1-0.1,7.4-1.4l4.2,1.4c0.1,0,0.2,0,0.3,0
				c0.2,0,0.4-0.1,0.6-0.2c0.2-0.2,0.3-0.5,0.3-0.8L49.1,34.3z M33.4,42.4c-3.4,3.9-9.1,4.9-13.6,2.3c-0.1-0.1-0.3-0.1-0.4-0.1
				c-0.1,0-0.2,0-0.3,0l-3.2,1.1l0.6-3.4c0-0.2,0-0.5-0.2-0.7c-3-4.1-2.8-9.7,0.6-13.5c1.9-2.2,4.6-3.5,7.5-3.7c0.6,0,1.2,0,1.7,0
				c-0.1,0.6-0.2,1.2-0.3,1.8c-0.2,3.4,0.9,6.6,3.1,9.2c1.7,2,3.9,3.3,6.3,3.9C34.8,40.5,34.2,41.5,33.4,42.4z M47.4,33.6
				c-0.2,0.2-0.2,0.4-0.2,0.7l0.6,3.4l-3.2-1.1c-0.2-0.1-0.5-0.1-0.7,0.1c-2,1.1-4.2,1.6-6.3,1.3c-0.6-0.1-1.2-0.1-1.8-0.3
				c-2.1-0.5-4-1.7-5.5-3.4c-1.9-2.2-2.9-5-2.7-7.9c0-0.6,0.1-1.1,0.2-1.6c0.1-0.6,0.3-1.2,0.5-1.7c0.6-1.6,1.6-3,2.9-4.1
				c2.1-1.8,4.6-2.7,7.1-2.7c3,0,6.1,1.3,8.2,3.7C50.2,23.9,50.4,29.4,47.4,33.6z"/>
		</g>
		<g>
			<circle class="st1" cx="44.1" cy="27.1" r="1.7"/>
			<circle class="st1" cx="38.4" cy="27.1" r="1.7"/>
			<circle class="st1" cx="32.8" cy="27.1" r="1.7"/>
		</g>
	</g>
</g>
</svg>
