<svg id="Layer_1" data-name="Layer 1" xmlns="http://www.w3.org/2000/svg" width="64" height="64" viewBox="0 0 64 64"><defs><style>.cls-1{fill:#ff6b08;}.cls-2{fill:#fff;}</style></defs><title>sponsorbe-part-of-a-global-community copy</title><circle class="cls-1" cx="32" cy="32" r="31"/><circle class="cls-2" cx="19.74" cy="35.25" r="1.72"/><circle class="cls-2" cx="25.39" cy="35.25" r="1.72"/><path class="cls-2" d="M49.08,34.3A12.69,12.69,0,0,0,30.26,17.59a12.48,12.48,0,0,0-3.55,5.12,12.67,12.67,0,0,0-12,19.73l-.84,4.49a.93.93,0,0,0,.3.85.92.92,0,0,0,.59.22.87.87,0,0,0,.28-.05l4.26-1.42a12.71,12.71,0,0,0,15.46-2.9,13,13,0,0,0,2.32-3.88,12.62,12.62,0,0,0,7.39-1.36l4.25,1.42a1,1,0,0,0,.29,0,.89.89,0,0,0,.88-1.06ZM33.42,42.45a10.89,10.89,0,0,1-13.57,2.32,1,1,0,0,0-.45-.11.9.9,0,0,0-.28,0l-3.18,1.06.63-3.36a.91.91,0,0,0-.16-.7,10.88,10.88,0,0,1,8.05-17.26,11.25,11.25,0,0,1,1.74,0,12.43,12.43,0,0,0-.26,1.83A12.69,12.69,0,0,0,35.3,39.4,11,11,0,0,1,33.42,42.45Zm14-8.89a.86.86,0,0,0-.16.69l.62,3.37-3.17-1.06a.89.89,0,0,0-.73.07A10.73,10.73,0,0,1,37.62,38a9.74,9.74,0,0,1-1.78-.31A10.88,10.88,0,0,1,27.73,26.4,11,11,0,0,1,28,24.76a10,10,0,0,1,.54-1.71,10.88,10.88,0,0,1,10.08-6.78A10.88,10.88,0,0,1,47.4,33.56Z"/><circle class="cls-2" cx="44.07" cy="27.1" r="1.72"/><circle class="cls-2" cx="38.41" cy="27.1" r="1.72"/><circle class="cls-2" cx="32.76" cy="27.1" r="1.72"/></svg>